<svg width="36" height="34" viewBox="0 0 36 34" fill="none" xmlns="http://www.w3.org/2000/svg">
<g clip-path="url(#clip0_1_3616)">
<g opacity="0.62019" filter="url(#filter0_f_1_3616)">
<path d="M19.215 26.0772C15.6763 27.6096 12.0139 28.4041 9.03343 28.2858C6.05297 28.1675 3.99862 27.1462 3.32231 25.4465C2.646 23.7468 3.40314 21.5079 5.42715 19.2225C7.45116 16.937 10.5763 14.7921 14.115 13.2597C17.6537 11.7272 21.3161 10.9328 24.2965 11.0511C27.277 11.1693 29.3314 12.1907 30.0077 13.8904C30.684 15.5901 29.9268 17.8289 27.9028 20.1144C25.8788 22.3999 22.7537 24.5448 19.215 26.0772Z" fill="url(#paint0_radial_1_3616)"/>
</g>
<path d="M33.4353 12.4574C33.4405 13.5678 33.2284 14.6682 32.8113 15.6955C32.3942 16.7229 31.7802 17.6568 31.0046 18.4438C30.2291 19.2308 29.3072 19.8553 28.292 20.2814C27.2767 20.7076 26.1881 20.9269 25.0887 20.9269C23.9893 20.9269 22.9007 20.7076 21.8855 20.2814C20.8702 19.8553 19.9484 19.2308 19.1728 18.4438C18.3972 17.6568 17.7832 16.7229 17.3661 15.6955C16.949 14.6682 16.737 13.5678 16.7422 12.4574C16.737 11.3471 16.949 10.2467 17.3661 9.21936C17.7832 8.19203 18.3972 7.25805 19.1728 6.47106C19.9484 5.68408 20.8702 5.05959 21.8855 4.63346C22.9007 4.20734 23.9893 3.98798 25.0887 3.98798C26.1881 3.98798 27.2767 4.20734 28.292 4.63346C29.3072 5.05959 30.2291 5.68408 31.0046 6.47106C31.7802 7.25805 32.3942 8.19203 32.8113 9.21936C33.2284 10.2467 33.4405 11.3471 33.4353 12.4574Z" fill="url(#paint1_radial_1_3616)"/>
<g opacity="0.30288" filter="url(#filter1_f_1_3616)">
<path d="M24.2156 17.9798C22.6491 18.7449 20.858 18.9922 19.2362 18.6674C17.6144 18.3426 16.2948 17.4722 15.5677 16.2476C14.8406 15.0231 14.7655 13.5448 15.3591 12.1379C15.9526 10.731 17.1661 9.51075 18.7325 8.74562C20.299 7.98048 22.0902 7.73312 23.712 8.05795C25.3338 8.38279 26.6534 9.2532 27.3805 10.4777C28.1076 11.7022 28.1826 13.1806 27.5891 14.5875C26.9955 15.9944 25.7821 17.2146 24.2156 17.9798Z" fill="url(#paint2_radial_1_3616)"/>
</g>
<g filter="url(#filter2_f_1_3616)">
<path d="M31.3187 10.7415C31.322 11.4265 31.1911 12.1054 30.9338 12.7392C30.6765 13.373 30.2977 13.9493 29.8192 14.4348C29.3407 14.9203 28.772 15.3056 28.1456 15.5685C27.5193 15.8314 26.8477 15.9667 26.1694 15.9667C25.4911 15.9667 24.8195 15.8314 24.1932 15.5685C23.5669 15.3056 22.9981 14.9203 22.5196 14.4348C22.0412 13.9493 21.6624 13.373 21.405 12.7392C21.1477 12.1054 21.0169 11.4265 21.0201 10.7415C21.0169 10.0565 21.1477 9.37759 21.405 8.74378C21.6624 8.10998 22.0412 7.53376 22.5196 7.04823C22.9981 6.5627 23.5669 6.17742 24.1932 5.91453C24.8195 5.65163 25.4911 5.5163 26.1694 5.5163C26.8477 5.5163 27.5193 5.65163 28.1456 5.91453C28.772 6.17742 29.3407 6.5627 29.8192 7.04823C30.2977 7.53376 30.6765 8.10998 30.9338 8.74378C31.1911 9.37759 31.322 10.0565 31.3187 10.7415Z" fill="url(#paint3_radial_1_3616)"/>
</g>
<path opacity="0.74038" fill-rule="evenodd" clip-rule="evenodd" d="M20.5297 17.8622C18.7528 16.4288 18.2745 15.6167 18.5449 13.9682C19.3155 16.1037 20.4515 17.7403 20.5297 17.8622Z" fill="url(#paint4_radial_1_3616)"/>
<path d="M35.996 6.55362C35.9997 7.35639 35.8512 8.1404 35.559 8.86063C35.2669 9.58085 34.8369 10.2231 34.2937 10.7505C33.7505 11.2779 33.1049 11.68 32.3939 11.9337C31.6828 12.1875 30.9204 12.2879 30.1504 12.2292C29.3805 12.1705 28.6181 11.9538 27.907 11.5916C27.196 11.2294 26.5504 10.7288 26.0072 10.1186C25.464 9.5084 25.034 8.80057 24.7419 8.0358C24.4497 7.27102 24.3012 6.46436 24.3049 5.66215C24.3012 4.85938 24.4497 4.07537 24.7419 3.35514C25.034 2.63492 25.464 1.99267 26.0072 1.46529C26.5504 0.937917 27.196 0.535797 27.907 0.282033C28.6181 0.0282689 29.3805 -0.0721401 30.1504 -0.013427C30.9204 0.045286 31.6828 0.261965 32.3939 0.624163C33.1049 0.986361 33.7505 1.48694 34.2937 2.09716C34.8369 2.70737 35.2669 3.41519 35.559 4.17997C35.8512 4.94474 35.9997 5.7514 35.996 6.55362Z" fill="url(#paint5_radial_1_3616)"/>
<path fill-rule="evenodd" clip-rule="evenodd" d="M31.5013 0.746887C34.3318 2.64934 35.1434 3.73088 34.9301 5.93558C33.5262 3.08778 31.6326 0.909171 31.5013 0.746887Z" fill="url(#paint6_radial_1_3616)"/>
</g>
<defs>
<filter id="filter0_f_1_3616" x="-9.66944" y="-1.7107" width="52.669" height="42.7583" filterUnits="userSpaceOnUse" color-interpolation-filters="sRGB">
<feFlood flood-opacity="0" result="BackgroundImageFix"/>
<feBlend mode="normal" in="SourceGraphic" in2="BackgroundImageFix" result="shape"/>
<feGaussianBlur stdDeviation="6.37513" result="effect1_foregroundBlur_1_3616"/>
</filter>
<filter id="filter1_f_1_3616" x="8.15529" y="1.11128" width="26.6375" height="24.5028" filterUnits="userSpaceOnUse" color-interpolation-filters="sRGB">
<feFlood flood-opacity="0" result="BackgroundImageFix"/>
<feBlend mode="normal" in="SourceGraphic" in2="BackgroundImageFix" result="shape"/>
<feGaussianBlur stdDeviation="3.40356" result="effect1_foregroundBlur_1_3616"/>
</filter>
<filter id="filter2_f_1_3616" x="19.5948" y="4.09105" width="13.1493" height="13.3009" filterUnits="userSpaceOnUse" color-interpolation-filters="sRGB">
<feFlood flood-opacity="0" result="BackgroundImageFix"/>
<feBlend mode="normal" in="SourceGraphic" in2="BackgroundImageFix" result="shape"/>
<feGaussianBlur stdDeviation="0.712622" result="effect1_foregroundBlur_1_3616"/>
</filter>
<radialGradient id="paint0_radial_1_3616" cx="0" cy="0" r="1" gradientUnits="userSpaceOnUse" gradientTransform="translate(20.7926 17.6971) rotate(83.6119) scale(12.018 18.2897)">
<stop stop-opacity="0.99107"/>
<stop offset="0.51389" stop-opacity="0.61607"/>
<stop offset="1" stop-color="#8D8D8D" stop-opacity="0"/>
</radialGradient>
<radialGradient id="paint1_radial_1_3616" cx="0" cy="0" r="1" gradientUnits="userSpaceOnUse" gradientTransform="translate(28.0365 12.4574) scale(8.34666 8.42956)">
<stop stop-color="#F60000"/>
<stop offset="1" stop-color="#B30000"/>
</radialGradient>
<radialGradient id="paint2_radial_1_3616" cx="0" cy="0" r="1" gradientUnits="userSpaceOnUse" gradientTransform="translate(23.2618 12.3437) rotate(68.4973) scale(8.94819 8.62051)">
<stop stop-opacity="0.99107"/>
<stop offset="0.51389" stop-opacity="0.61607"/>
<stop offset="1" stop-color="#8D8D8D" stop-opacity="0"/>
</radialGradient>
<radialGradient id="paint3_radial_1_3616" cx="0" cy="0" r="1" gradientUnits="userSpaceOnUse" gradientTransform="translate(26.1697 10.7415) scale(5.14939 5.20059)">
<stop stop-color="#7F0000" stop-opacity="0.58407"/>
<stop offset="0.66667" stop-color="#840000" stop-opacity="0.49804"/>
<stop offset="1" stop-opacity="0"/>
</radialGradient>
<radialGradient id="paint4_radial_1_3616" cx="0" cy="0" r="1" gradientUnits="userSpaceOnUse" gradientTransform="translate(18.7478 15.9986) rotate(146.792) scale(0.99967 4.01924)">
<stop stop-color="white"/>
<stop offset="1" stop-color="white" stop-opacity="0"/>
</radialGradient>
<radialGradient id="paint5_radial_1_3616" cx="0" cy="0" r="1" gradientUnits="userSpaceOnUse" gradientTransform="translate(30.7067 5.27688) rotate(45.4599) scale(6.28611 6.06439)">
<stop stop-color="#D43500"/>
<stop offset="0.48052" stop-color="#D42400"/>
<stop offset="0.73611" stop-color="#D40000"/>
<stop offset="1" stop-color="#950000"/>
</radialGradient>
<radialGradient id="paint6_radial_1_3616" cx="0" cy="0" r="1" gradientUnits="userSpaceOnUse" gradientTransform="translate(34.3929 3.24334) rotate(-31.8011) scale(1.39987 5.75066)">
<stop stop-color="white"/>
<stop offset="1" stop-color="white" stop-opacity="0"/>
</radialGradient>
<clipPath id="clip0_1_3616">
<rect width="36" height="34" fill="white"/>
</clipPath>
</defs>
</svg>
